<?xml version="1.0" encoding="UTF-8" standalone="no"?>
<!-- Created with Inkscape (http://www.inkscape.org/) -->

<svg
   width="670.27777mm"
   height="952.50006mm"
   viewBox="0 0 670.27777 952.50008"
   version="1.1"
   id="svg5"
   xml:space="preserve"
   inkscape:version="1.2.2 (b0a8486541, 2022-12-01)"
   sodipodi:docname="401.lock.svg"
   xmlns:inkscape="http://www.inkscape.org/namespaces/inkscape"
   xmlns:sodipodi="http://sodipodi.sourceforge.net/DTD/sodipodi-0.dtd"
   xmlns="http://www.w3.org/2000/svg"
   xmlns:svg="http://www.w3.org/2000/svg"><sodipodi:namedview
     id="namedview7"
     pagecolor="#ffffff"
     bordercolor="#666666"
     borderopacity="1.0"
     inkscape:showpageshadow="2"
     inkscape:pageopacity="0.0"
     inkscape:pagecheckerboard="0"
     inkscape:deskcolor="#d1d1d1"
     inkscape:document-units="mm"
     showgrid="false"
     inkscape:zoom="0.19554223"
     inkscape:cx="97.165713"
     inkscape:cy="1613.4622"
     inkscape:window-width="1908"
     inkscape:window-height="1045"
     inkscape:window-x="4"
     inkscape:window-y="27"
     inkscape:window-maximized="1"
     inkscape:current-layer="layer1" /><defs
     id="defs2" /><g
     inkscape:label="Layer 1"
     inkscape:groupmode="layer"
     id="layer1"
     transform="translate(192.79008,426.71368)"><path
       style="fill:#000000;stroke-width:0.352778"
       d="m -192.79008,190.64746 v -335.1389 h 70.55556 70.555556 V -285.60256 -426.71368 H 142.34881 336.37659 v 141.11112 141.11112 h 70.55555 70.55556 v 335.1389 335.13891 H 142.34881 -192.79008 Z m 635,0 V -109.21366 H 142.34881 -157.5123 v 299.86112 299.86113 h 299.86111 299.86111 z m -458.611104,70.55556 v -52.91667 h -52.91667 -52.916666 V 137.7308 67.175239 h 17.63889 17.638886 v 52.916671 52.91666 h 52.91667 52.91666 v 70.55556 70.55556 H 1.2376957 -16.401184 Z M 89.432136,190.64746 V 67.175239 H 159.9877 230.54325 V 190.64746 314.11969 H 159.9877 89.432136 Z M 371.65436,225.92524 V 137.7308 h -17.63889 -17.63888 v 17.63888 17.63889 H 318.7377 301.09881 v 17.63889 17.63889 h -17.63889 -17.63889 v -17.63889 -17.63889 h 17.63889 17.63889 V 155.36968 137.7308 h 17.63889 17.63889 v -17.63889 -17.63889 h 17.63888 17.63889 V 84.814129 67.175239 h 17.63889 17.63889 V 190.64746 314.11969 H 389.29325 371.65436 Z M 301.09881,-267.96367 V -391.4359 h -158.75 -158.749994 v 123.47223 123.47223 h 158.749994 158.75 z"
       id="path856" /></g></svg>
