<svg xmlns="http://www.w3.org/2000/svg" xmlns:svg="http://www.w3.org/2000/svg" id="svg5" width="2533.333" height="3600" version="1.1" viewBox="0 0 670.278 952.5" xml:space="preserve"><g id="layer1" transform="translate(192.79008,426.71368)"><path style="fill:#000;stroke-width:.352778" id="path856" d="m -192.79008,190.64746 v -335.1389 h 70.55556 70.555556 V -285.60256 -426.71368 H 142.34881 336.37659 v 141.11112 141.11112 h 70.55555 70.55556 v 335.1389 335.13891 H 142.34881 -192.79008 Z m 635,0 V -109.21366 H 142.34881 -157.5123 v 299.86112 299.86113 h 299.86111 299.86111 z m -458.611104,70.55556 v -52.91667 h -52.91667 -52.916666 V 137.7308 67.175239 h 17.63889 17.638886 v 52.916671 52.91666 h 52.91667 52.91666 v 70.55556 70.55556 H 1.2376957 -16.401184 Z M 89.432136,190.64746 V 67.175239 H 159.9877 230.54325 V 190.64746 314.11969 H 159.9877 89.432136 Z M 371.65436,225.92524 V 137.7308 h -17.63889 -17.63888 v 17.63888 17.63889 H 318.7377 301.09881 v 17.63889 17.63889 h -17.63889 -17.63889 v -17.63889 -17.63889 h 17.63889 17.63889 V 155.36968 137.7308 h 17.63889 17.63889 v -17.63889 -17.63889 h 17.63888 17.63889 V 84.814129 67.175239 h 17.63889 17.63889 V 190.64746 314.11969 H 389.29325 371.65436 Z M 301.09881,-267.96367 V -391.4359 h -158.75 -158.749994 v 123.47223 123.47223 h 158.749994 158.75 z"/></g></svg>