<svg xmlns="http://www.w3.org/2000/svg" xmlns:svg="http://www.w3.org/2000/svg" id="svg8" width="380" height="320" version="1.1" viewBox="0 0 100.542 84.667"><metadata id="metadata5"/><g id="layer1" transform="translate(-51.423667,-86.977529)"><path style="fill:#000;stroke-width:.26458332;fill-opacity:1" id="path826" d="M 51.423667,129.31085 V 86.977529 h 50.270843 50.27083 v 42.333321 42.33333 H 101.69451 51.423667 Z m 79.375003,34.39583 v -2.64583 h 2.64583 2.64584 v 2.64583 2.64584 h 5.29166 5.29167 v -10.58334 -10.58333 h -2.64583 -2.64584 v -2.64583 -2.64584 h 2.64584 2.64583 V 116.08169 92.269199 H 101.69451 56.715337 v 23.812491 23.81249 h 2.64583 2.64584 v 2.64584 2.64583 h -2.64584 -2.64583 v 10.58333 10.58334 h 37.04167 37.041663 z m -5.29167,-5.29166 v -2.64584 h -2.64583 -2.64583 v -2.64583 -2.64583 h -2.64584 -2.64583 v -2.64584 -2.64583 h -2.64583 -2.64584 v -2.64583 -2.64584 h -2.64583 -2.64583 v -2.64583 -2.64583 h -2.64583 -2.645843 v -2.64584 -2.64583 h -2.64583 -2.64583 v -2.64583 -2.64583 h -2.64584 -2.64583 v -2.64584 -2.64583 h -2.64583 -2.64584 v 2.64583 2.64584 h -2.64583 -2.64583 v 2.64583 2.64583 h -2.64584 -2.64583 v 2.64583 2.64584 h -2.64583 -2.64584 v 2.64583 2.64583 h -2.64583 -2.64583 v -2.64583 -2.64583 h 2.64583 2.64583 v -2.64584 -2.64583 h 2.64584 2.64583 v -2.64583 -2.64583 h 2.64583 2.64584 v -2.64584 -2.64583 h 2.64583 2.64583 v -2.64583 -2.64584 h 2.64584 2.64583 v 2.64584 2.64583 h 2.64583 2.64584 v 2.64583 2.64584 h 2.64583 2.64583 v 2.64583 2.64583 h 2.645843 2.64583 v 2.64583 2.64584 h 2.64583 2.64583 v 2.64583 2.64583 h 2.64584 2.64583 v -2.64583 -2.64583 h 2.64583 2.64584 v -2.64584 -2.64583 h 2.64583 2.64583 v -2.64583 -2.64583 h 2.64584 2.64583 v 2.64583 2.64583 h 2.64583 2.64584 v 2.64583 2.64584 h 2.64583 2.64583 v 2.64583 2.64583 h -2.64583 -2.64583 v -2.64583 -2.64583 h -2.64584 -2.64583 v -2.64584 -2.64583 h -2.64583 -2.64584 v 2.64583 2.64584 h -2.64583 -2.64583 v 2.64583 2.64583 h -2.64584 -2.64583 v 2.64584 2.64583 h 2.64583 2.64584 v 2.64583 2.64584 h 2.64583 2.64583 v 2.64583 2.64583 h 2.64584 2.64583 v 2.64584 2.64583 h -2.64583 -2.64584 z m -15.875,-37.04167 v -2.64583 h 2.64584 2.64583 v 2.64583 2.64584 h -2.64583 -2.64584 z m 0,-10.58333 v -2.64583 h 2.64584 2.64583 v -2.64583 -2.64583 h -5.29167 -5.29166 v -2.64583 -2.645841 h 7.9375 7.9375 v 5.291671 5.29166 h -2.64584 -2.64583 v 2.64583 2.64583 h -2.64583 -2.64584 z"/></g></svg>