<?xml version="1.0" encoding="UTF-8" standalone="no"?>
<!-- Created with Inkscape (http://www.inkscape.org/) -->

<svg
   width="63.500004mm"
   height="95.25mm"
   viewBox="0 0 63.500004 95.25"
   version="1.1"
   id="svg8"
   inkscape:version="1.2.2 (b0a8486541, 2022-12-01)"
   sodipodi:docname="404.file.svg"
   xmlns:inkscape="http://www.inkscape.org/namespaces/inkscape"
   xmlns:sodipodi="http://sodipodi.sourceforge.net/DTD/sodipodi-0.dtd"
   xmlns="http://www.w3.org/2000/svg"
   xmlns:svg="http://www.w3.org/2000/svg"
   xmlns:rdf="http://www.w3.org/1999/02/22-rdf-syntax-ns#"
   xmlns:cc="http://creativecommons.org/ns#"
   xmlns:dc="http://purl.org/dc/elements/1.1/">
  <defs
     id="defs2" />
  <sodipodi:namedview
     id="base"
     pagecolor="#ffffff"
     bordercolor="#666666"
     borderopacity="1.0"
     inkscape:pageopacity="0.0"
     inkscape:pageshadow="2"
     inkscape:zoom="1.4"
     inkscape:cx="218.57143"
     inkscape:cy="195.35714"
     inkscape:document-units="mm"
     inkscape:current-layer="layer1"
     showgrid="false"
     inkscape:window-width="1908"
     inkscape:window-height="1045"
     inkscape:window-x="4"
     inkscape:window-y="27"
     inkscape:window-maximized="1"
     fit-margin-top="0"
     fit-margin-left="0"
     fit-margin-right="0"
     fit-margin-bottom="0"
     inkscape:showpageshadow="2"
     inkscape:pagecheckerboard="0"
     inkscape:deskcolor="#d1d1d1" />
  <metadata
     id="metadata5">
    <rdf:RDF>
      <cc:Work
         rdf:about="">
        <dc:format>image/svg+xml</dc:format>
        <dc:type
           rdf:resource="http://purl.org/dc/dcmitype/StillImage" />
        <dc:title />
      </cc:Work>
    </rdf:RDF>
  </metadata>
  <g
     inkscape:label="Layer 1"
     inkscape:groupmode="layer"
     id="layer1"
     transform="translate(0,-201.75)">
    <g
       id="layer1-3"
       inkscape:label="Layer 1"
       transform="translate(-73.308498,111.99434)"
       style="image-rendering:optimizeQuality;fill:#000000;fill-opacity:1">
      <path
         inkscape:connector-curvature="0"
         id="path25"
         d="M 73.308498,137.38066 V 89.755658 h 23.8125 23.812502 v 2.64583 2.64583 h 2.64583 2.64583 v 2.64584 2.645832 h 2.64584 2.64583 v 2.64584 2.64583 h 2.64583 2.64584 v 39.6875 39.6875 h -31.75 -31.750002 z m 58.208332,10.58333 v -31.75 H 120.9335 110.35016 V 105.63066 95.047318 h -15.875002 -15.875 v 42.333342 42.33333 h 26.458342 26.45833 z m -42.333332,-7.9375 v -2.64583 h -2.64584 -2.64583 v -5.29167 -5.29166 h 2.64583 2.64584 v 2.64583 2.64583 h 2.64583 2.64583 v 5.29167 5.29167 h -2.64583 -2.64583 z m 10.58333,-5.29166 v -7.9375 h 5.291672 5.29166 v 7.9375 7.9375 h -5.29166 -5.291672 z m 21.166672,5.29166 v -2.64583 h -2.64584 -2.64583 v -5.29167 -5.29166 h 2.64583 2.64584 v 2.64583 2.64583 h 2.64583 2.64583 v 5.29167 5.29167 h -2.64583 -2.64583 z m 10.58333,-31.75 v -2.64583 h -2.64583 -2.64584 v -2.64583 -2.64584 h -2.64583 -2.64583 v -2.645832 -2.64584 h -2.64584 -2.64583 v 7.937512 7.9375 h 7.9375 7.9375 z"
         style="fill:#000000;stroke-width:0.26458332;fill-opacity:1" />
    </g>
  </g>
</svg>
