<svg xmlns="http://www.w3.org/2000/svg" xmlns:svg="http://www.w3.org/2000/svg" id="svg8" width="240" height="360" version="1.1" viewBox="0 0 63.5 95.25"><metadata id="metadata5"/><g id="layer1" transform="translate(0,-201.75)"><g id="layer1-3" transform="translate(-73.308498,111.99434)" style="image-rendering:optimizeQuality;fill:#000;fill-opacity:1"><path id="path25" d="M 73.308498,137.38066 V 89.755658 h 23.8125 23.812502 v 2.64583 2.64583 h 2.64583 2.64583 v 2.64584 2.645832 h 2.64584 2.64583 v 2.64584 2.64583 h 2.64583 2.64584 v 39.6875 39.6875 h -31.75 -31.750002 z m 58.208332,10.58333 v -31.75 H 120.9335 110.35016 V 105.63066 95.047318 h -15.875002 -15.875 v 42.333342 42.33333 h 26.458342 26.45833 z m -42.333332,-7.9375 v -2.64583 h -2.64584 -2.64583 v -5.29167 -5.29166 h 2.64583 2.64584 v 2.64583 2.64583 h 2.64583 2.64583 v 5.29167 5.29167 h -2.64583 -2.64583 z m 10.58333,-5.29166 v -7.9375 h 5.291672 5.29166 v 7.9375 7.9375 h -5.29166 -5.291672 z m 21.166672,5.29166 v -2.64583 h -2.64584 -2.64583 v -5.29167 -5.29166 h 2.64583 2.64584 v 2.64583 2.64583 h 2.64583 2.64583 v 5.29167 5.29167 h -2.64583 -2.64583 z m 10.58333,-31.75 v -2.64583 h -2.64583 -2.64584 v -2.64583 -2.64584 h -2.64583 -2.64583 v -2.645832 -2.64584 h -2.64584 -2.64583 v 7.937512 7.9375 h 7.9375 7.9375 z" style="fill:#000;stroke-width:.26458332;fill-opacity:1"/></g></g></svg>