<?xml version="1.0" encoding="UTF-8" standalone="no"?>
<!-- Created with Inkscape (http://www.inkscape.org/) -->

<svg
   width="200mm"
   height="292.30768mm"
   viewBox="0 0 200 292.30768"
   version="1.1"
   id="svg8"
   inkscape:version="1.2.2 (b0a8486541, 2022-12-01)"
   sodipodi:docname="404.video.svg"
   xmlns:inkscape="http://www.inkscape.org/namespaces/inkscape"
   xmlns:sodipodi="http://sodipodi.sourceforge.net/DTD/sodipodi-0.dtd"
   xmlns="http://www.w3.org/2000/svg"
   xmlns:svg="http://www.w3.org/2000/svg"
   xmlns:rdf="http://www.w3.org/1999/02/22-rdf-syntax-ns#"
   xmlns:cc="http://creativecommons.org/ns#"
   xmlns:dc="http://purl.org/dc/elements/1.1/">
  <defs
     id="defs2" />
  <sodipodi:namedview
     id="base"
     pagecolor="#ffffff"
     bordercolor="#666666"
     borderopacity="1.0"
     inkscape:pageopacity="0.0"
     inkscape:pageshadow="2"
     inkscape:zoom="0.7"
     inkscape:cx="9.9999999"
     inkscape:cy="497.85714"
     inkscape:document-units="mm"
     inkscape:current-layer="layer1"
     showgrid="false"
     fit-margin-top="0"
     fit-margin-left="0"
     fit-margin-right="0"
     fit-margin-bottom="0"
     inkscape:window-width="1908"
     inkscape:window-height="1045"
     inkscape:window-x="4"
     inkscape:window-y="27"
     inkscape:window-maximized="1"
     inkscape:showpageshadow="2"
     inkscape:pagecheckerboard="0"
     inkscape:deskcolor="#d1d1d1" />
  <metadata
     id="metadata5">
    <rdf:RDF>
      <cc:Work
         rdf:about="">
        <dc:format>image/svg+xml</dc:format>
        <dc:type
           rdf:resource="http://purl.org/dc/dcmitype/StillImage" />
        <dc:title />
      </cc:Work>
    </rdf:RDF>
  </metadata>
  <g
     inkscape:label="Layer 1"
     inkscape:groupmode="layer"
     id="layer1"
     transform="translate(-0.81972816,-4.5322872)">
    <path
       style="fill:#000000;stroke-width:0.76923084;fill-opacity:1"
       d="M 0.81972816,150.68616 V 4.5322872 H 100.81971 200.81973 V 150.68616 296.83998 H 100.81971 0.81972816 Z M 31.588948,273.76306 v -7.6923 H 23.89665 16.204325 v 7.6923 7.69233 h 7.692325 7.692298 z M 154.66589,242.99385 V 204.53229 H 100.81971 46.973573 v 38.46156 38.46154 h 53.846137 53.84618 z m -87.692337,16.15383 v -6.92307 H 60.819726 54.66587 v -16.15385 -16.15384 h 6.923078 6.923076 v 9.23076 9.23077 h 6.153856 6.153827 v 13.84616 13.84615 h -6.923078 -6.923076 z m 21.538476,-16.15383 v -23.07693 h 12.307681 12.30771 v 23.07693 23.07691 H 100.81971 88.512029 Z m 44.615371,16.15383 v -6.92307 h -6.15383 -6.15385 v -16.15385 -16.15384 h 6.92307 6.92309 v 9.23076 9.23077 h 6.15385 6.15382 v 13.84616 13.84615 h -6.92308 -6.92307 z m 52.30769,14.61538 v -7.6923 h -7.69229 -7.69233 v 7.6923 7.69233 h 7.69233 7.69229 z M 31.588948,242.99385 v -7.69231 H 23.89665 16.204325 v 7.69231 7.69229 h 7.692325 7.692298 z m 153.846142,0 v -7.69231 h -7.69229 -7.69233 v 7.69231 7.69229 h 7.69233 7.69229 z M 31.588948,212.22462 v -7.69233 H 23.89665 16.204325 v 7.69233 7.6923 h 7.692325 7.692298 z m 153.846142,0 v -7.69233 h -7.69229 -7.69233 v 7.69233 7.6923 h 7.69233 7.69229 z M 31.588948,181.45536 v -7.6923 H 23.89665 16.204325 v 7.6923 7.69234 h 7.692325 7.692298 z M 154.66589,150.68616 V 112.2246 H 100.81971 46.973573 v 38.46156 38.46154 h 53.846137 53.84618 z M 66.973553,166.84 v -6.92308 H 60.819726 54.66587 v -16.15386 -16.15383 h 6.923078 6.923076 v 9.23077 9.23077 h 6.153856 6.153827 v 13.84615 13.84614 h -6.923078 -6.923076 z m 21.538476,-16.15384 v -23.07693 h 12.307681 12.30771 v 23.07693 23.0769 H 100.81971 88.512029 Z M 133.1274,166.84 v -6.92308 h -6.15383 -6.15385 v -16.15386 -16.15383 h 6.92307 6.92309 v 9.23077 9.23077 h 6.15385 6.15382 v 13.84615 13.84614 h -6.92308 -6.92307 z m 52.30769,14.61536 v -7.6923 h -7.69229 -7.69233 v 7.6923 7.69234 h 7.69233 7.69229 z m 0,-30.7692 v -7.69234 h -7.69229 -7.69233 v 7.69234 7.69229 h 7.69233 7.69229 z M 31.588948,149.9169 v -6.92308 H 23.89665 16.204325 v 6.92308 6.92311 h 7.692325 7.692298 z m 0,-30 v -7.6923 H 23.89665 16.204325 v 7.6923 7.69233 h 7.692325 7.692298 z m 153.846142,0 v -7.6923 h -7.69229 -7.69233 v 7.6923 7.69233 h 7.69233 7.69229 z M 31.588948,89.147675 V 81.455378 H 23.89665 16.204325 v 7.692297 7.692297 h 7.692325 7.692298 z M 154.66589,58.378458 V 19.916912 H 100.81971 46.973573 v 38.461546 38.461514 h 53.846137 53.84618 z M 66.973553,74.532304 V 67.609228 H 60.819726 54.66587 V 51.455381 35.301535 h 6.923078 6.923076 v 9.230771 9.230769 h 6.153856 6.153827 v 13.846153 13.84615 H 73.896629 66.973553 Z M 88.512029,58.378458 V 35.301535 h 12.307681 12.30771 v 23.076923 23.07692 H 100.81971 88.512029 Z M 133.1274,74.532304 v -6.923076 h -6.15383 -6.15385 V 51.455381 35.301535 h 6.92307 6.92309 v 9.230771 9.230769 h 6.15385 6.15382 v 13.846153 13.84615 h -6.92308 -6.92307 z m 52.30769,14.615371 v -7.692297 h -7.69229 -7.69233 v 7.692297 7.692297 h 7.69233 7.69229 z M 31.588948,58.378458 V 50.686131 H 23.89665 16.204325 v 7.692327 7.692298 h 7.692325 7.692298 z m 153.846142,0 v -7.692327 h -7.69229 -7.69233 v 7.692327 7.692298 h 7.69233 7.69229 z M 31.588948,27.609209 V 19.916912 H 23.89665 16.204325 v 7.692297 7.692326 h 7.692325 7.692298 z m 153.846142,0 v -7.692297 h -7.69229 -7.69233 v 7.692297 7.692326 h 7.69233 7.69229 z"
       id="path826"
       inkscape:connector-curvature="0" />
  </g>
</svg>
