<svg xmlns="http://www.w3.org/2000/svg" xmlns:svg="http://www.w3.org/2000/svg" id="svg2" width="239.6" height="357.436" version="1.1" viewBox="0 0 239.6 357.436"><metadata id="metadata8"/><path style="fill:#000;fill-opacity:1;stroke-width:1.96393824" id="path817" d="M 0,178.71798 V 0 H 119.8 239.6 V 178.71798 357.43582 H 119.8 0 Z m 216.0327,0 V 23.566953 H 119.8 23.567184 V 178.71798 333.86852 H 119.8 216.0327 Z M 39.278668,295.5715 v -22.58514 h 21.60333 21.603219 v 22.58514 22.58586 H 60.881998 39.278668 Z m 117.836072,0 v -22.58514 h 8.8375 8.83774 v 22.58514 22.58586 h -8.83774 -8.8375 z m 25.53152,0 v -22.58514 h 8.83746 8.83782 v 22.58514 22.58586 h -8.83782 -8.83746 z M 58.918002,229.77998 v -9.81964 h -9.819627 -9.819707 v -21.60298 -21.6037 H 51.06226 62.845956 v 9.8201 9.8195 h 9.819628 9.819633 v 21.60318 21.6037 H 70.701625 58.918002 Z M 98.19673,208.17626 v -31.4226 H 119.8 141.40345 v 31.4226 31.42388 H 119.8 98.19673 Z m 78.55709,21.60372 v -9.81964 h -9.81963 -9.81945 v -21.60298 -21.6037 h 11.78353 11.78387 v 9.8201 9.8195 h 9.8196 9.8198 v 21.60318 21.6037 H 188.5379 176.75382 Z M 68.73774,149.25842 V 137.4752 h 9.819658 9.819615 V 117.83582 98.196437 h 9.819717 9.81955 v -9.820018 -9.819107 h 9.81967 9.8199 v -9.819904 -9.819447 h 9.8196 9.81988 v -9.81994 -9.819634 h 11.78316 11.78357 v 51.062099 51.062634 h -21.60267 -21.60354 v -11.78355 -11.78375 h 9.8196 9.81988 V 100.16034 82.485183 h -7.85594 -7.85565 v 9.819352 9.819885 h -9.81971 -9.81982 v 29.45923 29.45873 H 90.34101 68.73774 Z"/><rect style="opacity:1;fill:#000;fill-opacity:1;stroke-width:1.96393824" id="rect821" width="21.603" height="21.603" x="106.053" y="271.022"/><rect style="opacity:1;fill:#000;fill-opacity:1;stroke-width:1.96393824" id="rect823" width="21.671" height="23.608" x="119.733" y="284.769"/><rect style="opacity:1;fill:#000;fill-opacity:1;stroke-width:1.96393824" id="rect825" width="21.603" height="21.603" x="106.053" y="300.481"/></svg>