<svg xmlns="http://www.w3.org/2000/svg" xmlns:svg="http://www.w3.org/2000/svg" id="svg5" width="975" height="1215" version="1.1" viewBox="0 0 257.969 321.469" xml:space="preserve"><g id="layer1" transform="translate(44.271064,38.357896)"><path style="fill:#000;stroke-width:.264583" id="path802" d="m 35.103936,281.12648 v -1.98437 h -1.98437 -1.98438 v -3.96875 -3.96875 h -1.98437 -1.98438 v -1.98438 -1.98437 h -1.98437 -1.98438 v -3.96875 -3.96875 h -1.98437 -1.98438 v -1.98438 -1.98437 h -1.98437 -1.98438 v -1.98438 -1.98437 h -1.98437 -1.98438 v -3.96875 -3.96875 h -1.9843698 -1.98438 v -1.98438 -1.98437 h -1.98437 -1.98438 v -3.96875 -3.96875 h -1.98437 -1.98438 v -1.98438 -1.98437 h -1.98437 -1.98438 v -3.96875 -3.96875 h -1.98437 -1.98438 v -1.98438 -1.98437 h -1.9843702 -1.98438 v -3.96875 -3.96875 h -1.98437 -1.98438 v -1.98438 -1.98437 h -1.98437 -1.98438 v -3.96875 -3.96875 h -1.98437 -1.98438 v -1.98438 -1.98437 h -1.98437 -1.98438 v -1.98438 -1.98437 h -1.98437 -1.98438 v -3.96875 -3.96875 h -1.98437 -1.98438 v -1.98438 -1.98437 h -1.98437 -1.98438 v -3.96875 -3.96875 h -1.98437 -1.98438 v -19.84375 -19.84375 h 19.84375 19.8437502 v 1.98437 1.98438 h 1.98438 1.98437 v 3.96875 3.96875 h 1.98438 1.98437 v 1.98437 1.98438 h 1.98438 1.98437 v 3.96875 3.96875 h 1.98438 1.9843698 v 1.98437 1.98438 h 1.98438 1.98437 v 1.98437 1.98438 h 1.98438 1.98437 v 3.96875 3.96875 h 1.98438 1.98437 v 1.98437 1.98438 h 1.98438 1.98437 v 3.96875 3.96875 h 1.98438 1.98437 v 1.98437 1.98438 h 1.98438 1.98437 v 3.96875 3.96875 h 1.98438 1.98437 v 1.98437 1.98438 h 1.98438 1.98437 v 3.96875 3.96875 h 1.98438 1.98437 v 1.98437 1.98438 h 3.96875 3.96875 v -3.96875 -3.96875 h 1.98438 1.98437 v -3.96875 -3.96875 h 1.98438 1.98437 v -3.96875 -3.96875 h 1.98438 1.98437 v -3.96875 -3.96875 h 1.98438 1.98437 v -3.96875 -3.96875 h 1.98438 1.98437 v -3.96875 -3.96875 h 1.98438 1.98437 v -3.96875 -3.96875 h 1.98438 1.98437 v -3.96875 -3.96875 h 1.98438 1.98437 v -3.96875 -3.96875 h 1.98438 1.98437 v -3.96875 -3.96875 h 1.98438 1.98437 v -3.96875 -3.96875 h 1.98438 1.98437 v -3.96875 -3.96875 h 1.984384 1.98437 v -3.96875 -3.96875 h 1.98438 1.98437 v -3.96875 -3.968755 h 1.98438 1.98437 v -3.96875 -3.96875 h 1.98438 1.98437 v -3.96875 -3.96875 h 1.98438 1.98437 v -3.96875 -3.96875 h 1.98438 1.98437 v -3.96875 -3.96875 h 1.98438 1.98437 v -3.96875 -3.96875 h 1.98438 1.98437 v -3.96875 -3.96875 h 1.98438 1.98437 v -3.96875 -3.96875 h 1.98438 1.98437 v -3.968751 -3.96875 h 1.98438 1.98437 v -3.96875 -3.96875 h 1.98438 1.98437 v -3.96875 -3.96875 h 1.98438 1.98437 v -3.96875 -3.9687496 h 1.98437 1.98438 v -3.96875 -3.96875 h 1.98437 1.98438 v -3.96875 -3.96875 h 1.98437 1.98438 v -3.9687504 -3.96875 h 1.98437 1.98438 v -3.96875 -3.96875 h 1.98437 1.98438 v -3.96875 -3.96875 h 1.98437 1.98438 v -3.96875 -3.96875 h 19.84375 19.84375 v 21.828125 21.8281254 h -1.98438 -1.98437 v 3.96875 3.9687496 h -1.98438 -1.98437 v 3.96875 3.96875 h -1.98438 -1.98437 v 3.96875 3.96875 h -1.98438 -1.98437 v 3.96875 3.96875 h -1.98438 -1.98437 v 3.968751 3.96875 h -1.98438 -1.98437 v 3.96875 3.96875 h -1.98438 -1.98437 v 3.96875 3.96875 h -1.98438 -1.98437 v 3.96875 3.96875 h -1.98438 -1.98437 v 3.96875 3.96875 h -1.98438 -1.98437 v 3.96875 3.96875 h -1.98438 -1.98437 v 3.96875 3.96875 h -1.98438 -1.98437 v 3.96875 3.968755 h -1.98438 -1.98437 v 3.96875 3.96875 h -1.98438 -1.98437 v 3.96875 3.96875 h -1.98438 -1.98437 v 3.96875 3.96875 h -1.98438 -1.98437 v 3.96875 3.96875 h -1.98437 -1.98438 v 3.96875 3.96875 h -1.98437 -1.98438 v 3.96875 3.96875 h -1.98437 -1.98438 v 3.96875 3.96875 h -1.98437 -1.98438 v 3.96875 3.96875 h -1.98437 -1.98438 v 3.96875 3.96875 h -1.98437 -1.98438 v 3.96875 3.96875 h -1.98437 -1.98438 v 3.96875 3.96875 h -1.98437 -1.98438 v 3.96875 3.96875 h -1.98437 -1.98438 v 3.96875 3.96875 h -1.98437 -1.98438 v 3.96875 3.96875 h -1.98437 -1.98438 v 3.96875 3.96875 h -1.98437 -1.98438 v 3.96875 3.96875 h -1.98437 -1.984384 v 3.96875 3.96875 h -1.98437 -1.98438 v 3.96875 3.96875 h -1.98437 -1.98438 v 3.96875 3.96875 h -1.98437 -1.98438 v 3.96875 3.96875 h -1.98437 -1.98438 v 3.96875 3.96875 h -1.98437 -1.98438 v 3.96875 3.96875 h -1.98437 -1.98438 v 3.96875 3.96875 h -19.84375 -19.84375 z"/></g></svg>