<?xml version="1.0" encoding="UTF-8" standalone="no"?>
<!-- Created with Inkscape (http://www.inkscape.org/) -->

<svg
   width="257.96875mm"
   height="321.46875mm"
   viewBox="0 0 257.96875 321.46875"
   version="1.1"
   id="svg5"
   xml:space="preserve"
   inkscape:version="1.2.2 (b0a8486541, 2022-12-01)"
   sodipodi:docname="index.ok.svg"
   xmlns:inkscape="http://www.inkscape.org/namespaces/inkscape"
   xmlns:sodipodi="http://sodipodi.sourceforge.net/DTD/sodipodi-0.dtd"
   xmlns="http://www.w3.org/2000/svg"
   xmlns:svg="http://www.w3.org/2000/svg"><sodipodi:namedview
     id="namedview7"
     pagecolor="#ffffff"
     bordercolor="#666666"
     borderopacity="1.0"
     inkscape:showpageshadow="2"
     inkscape:pageopacity="0.0"
     inkscape:pagecheckerboard="0"
     inkscape:deskcolor="#d1d1d1"
     inkscape:document-units="mm"
     showgrid="false"
     inkscape:zoom="0.55307694"
     inkscape:cx="524.33934"
     inkscape:cy="742.21138"
     inkscape:window-width="1908"
     inkscape:window-height="1045"
     inkscape:window-x="4"
     inkscape:window-y="27"
     inkscape:window-maximized="1"
     inkscape:current-layer="layer1" /><defs
     id="defs2" /><g
     inkscape:label="Layer 1"
     inkscape:groupmode="layer"
     id="layer1"
     transform="translate(44.271064,38.357896)"><path
       style="fill:#000000;stroke-width:0.264583"
       d="m 35.103936,281.12648 v -1.98437 h -1.98437 -1.98438 v -3.96875 -3.96875 h -1.98437 -1.98438 v -1.98438 -1.98437 h -1.98437 -1.98438 v -3.96875 -3.96875 h -1.98437 -1.98438 v -1.98438 -1.98437 h -1.98437 -1.98438 v -1.98438 -1.98437 h -1.98437 -1.98438 v -3.96875 -3.96875 h -1.9843698 -1.98438 v -1.98438 -1.98437 h -1.98437 -1.98438 v -3.96875 -3.96875 h -1.98437 -1.98438 v -1.98438 -1.98437 h -1.98437 -1.98438 v -3.96875 -3.96875 h -1.98437 -1.98438 v -1.98438 -1.98437 h -1.9843702 -1.98438 v -3.96875 -3.96875 h -1.98437 -1.98438 v -1.98438 -1.98437 h -1.98437 -1.98438 v -3.96875 -3.96875 h -1.98437 -1.98438 v -1.98438 -1.98437 h -1.98437 -1.98438 v -1.98438 -1.98437 h -1.98437 -1.98438 v -3.96875 -3.96875 h -1.98437 -1.98438 v -1.98438 -1.98437 h -1.98437 -1.98438 v -3.96875 -3.96875 h -1.98437 -1.98438 v -19.84375 -19.84375 h 19.84375 19.8437502 v 1.98437 1.98438 h 1.98438 1.98437 v 3.96875 3.96875 h 1.98438 1.98437 v 1.98437 1.98438 h 1.98438 1.98437 v 3.96875 3.96875 h 1.98438 1.9843698 v 1.98437 1.98438 h 1.98438 1.98437 v 1.98437 1.98438 h 1.98438 1.98437 v 3.96875 3.96875 h 1.98438 1.98437 v 1.98437 1.98438 h 1.98438 1.98437 v 3.96875 3.96875 h 1.98438 1.98437 v 1.98437 1.98438 h 1.98438 1.98437 v 3.96875 3.96875 h 1.98438 1.98437 v 1.98437 1.98438 h 1.98438 1.98437 v 3.96875 3.96875 h 1.98438 1.98437 v 1.98437 1.98438 h 3.96875 3.96875 v -3.96875 -3.96875 h 1.98438 1.98437 v -3.96875 -3.96875 h 1.98438 1.98437 v -3.96875 -3.96875 h 1.98438 1.98437 v -3.96875 -3.96875 h 1.98438 1.98437 v -3.96875 -3.96875 h 1.98438 1.98437 v -3.96875 -3.96875 h 1.98438 1.98437 v -3.96875 -3.96875 h 1.98438 1.98437 v -3.96875 -3.96875 h 1.98438 1.98437 v -3.96875 -3.96875 h 1.98438 1.98437 v -3.96875 -3.96875 h 1.98438 1.98437 v -3.96875 -3.96875 h 1.98438 1.98437 v -3.96875 -3.96875 h 1.984384 1.98437 v -3.96875 -3.96875 h 1.98438 1.98437 v -3.96875 -3.968755 h 1.98438 1.98437 v -3.96875 -3.96875 h 1.98438 1.98437 v -3.96875 -3.96875 h 1.98438 1.98437 v -3.96875 -3.96875 h 1.98438 1.98437 v -3.96875 -3.96875 h 1.98438 1.98437 v -3.96875 -3.96875 h 1.98438 1.98437 v -3.96875 -3.96875 h 1.98438 1.98437 v -3.96875 -3.96875 h 1.98438 1.98437 v -3.968751 -3.96875 h 1.98438 1.98437 v -3.96875 -3.96875 h 1.98438 1.98437 v -3.96875 -3.96875 h 1.98438 1.98437 v -3.96875 -3.9687496 h 1.98437 1.98438 v -3.96875 -3.96875 h 1.98437 1.98438 v -3.96875 -3.96875 h 1.98437 1.98438 v -3.9687504 -3.96875 h 1.98437 1.98438 v -3.96875 -3.96875 h 1.98437 1.98438 v -3.96875 -3.96875 h 1.98437 1.98438 v -3.96875 -3.96875 h 19.84375 19.84375 v 21.828125 21.8281254 h -1.98438 -1.98437 v 3.96875 3.9687496 h -1.98438 -1.98437 v 3.96875 3.96875 h -1.98438 -1.98437 v 3.96875 3.96875 h -1.98438 -1.98437 v 3.96875 3.96875 h -1.98438 -1.98437 v 3.968751 3.96875 h -1.98438 -1.98437 v 3.96875 3.96875 h -1.98438 -1.98437 v 3.96875 3.96875 h -1.98438 -1.98437 v 3.96875 3.96875 h -1.98438 -1.98437 v 3.96875 3.96875 h -1.98438 -1.98437 v 3.96875 3.96875 h -1.98438 -1.98437 v 3.96875 3.96875 h -1.98438 -1.98437 v 3.96875 3.968755 h -1.98438 -1.98437 v 3.96875 3.96875 h -1.98438 -1.98437 v 3.96875 3.96875 h -1.98438 -1.98437 v 3.96875 3.96875 h -1.98438 -1.98437 v 3.96875 3.96875 h -1.98437 -1.98438 v 3.96875 3.96875 h -1.98437 -1.98438 v 3.96875 3.96875 h -1.98437 -1.98438 v 3.96875 3.96875 h -1.98437 -1.98438 v 3.96875 3.96875 h -1.98437 -1.98438 v 3.96875 3.96875 h -1.98437 -1.98438 v 3.96875 3.96875 h -1.98437 -1.98438 v 3.96875 3.96875 h -1.98437 -1.98438 v 3.96875 3.96875 h -1.98437 -1.98438 v 3.96875 3.96875 h -1.98437 -1.98438 v 3.96875 3.96875 h -1.98437 -1.98438 v 3.96875 3.96875 h -1.98437 -1.98438 v 3.96875 3.96875 h -1.98437 -1.984384 v 3.96875 3.96875 h -1.98437 -1.98438 v 3.96875 3.96875 h -1.98437 -1.98438 v 3.96875 3.96875 h -1.98437 -1.98438 v 3.96875 3.96875 h -1.98437 -1.98438 v 3.96875 3.96875 h -1.98437 -1.98438 v 3.96875 3.96875 h -1.98437 -1.98438 v 3.96875 3.96875 h -19.84375 -19.84375 z"
       id="path802" /></g></svg>
